<?xml version="1.0" encoding="utf-8"?>
<!-- Generator: Adobe Illustrator 24.1.1, SVG Export Plug-In . SVG Version: 6.00 Build 0)  -->
<svg version="1.1" id="Layer_1" xmlns="http://www.w3.org/2000/svg" xmlns:xlink="http://www.w3.org/1999/xlink" x="0px" y="0px"
	 viewBox="0 0 200 200" style="enable-background:new 0 0 200 200;" xml:space="preserve">
<style type="text/css">
	.st0{fill:none;}
	.st1{fill:none;stroke:#0C4857;stroke-width:5.76;}
	.st2{fill:none;stroke:#1D1D1B;stroke-width:0.3;}
	.st3{fill:none;stroke:#1D1D1B;stroke-width:3.2;}
	.st4{fill:#A0235D;}
	.st5{fill:url(#SVGID_1_);}
	.st6{fill:url(#SVGID_2_);}
	.st7{fill:#F3A313;}
	.st8{enable-background:new    ;}
	.st9{fill:#FFFFFF;}
</style>
<pattern  y="200" width="72" height="72" patternUnits="userSpaceOnUse" id="_x31_0_lpi_80_x25__2" viewBox="72.3 -72 72 72" style="overflow:visible;">
	<g>
		<rect x="72.3" y="-72" class="st0" width="72" height="72"/>
		<g>
			<rect x="72.3" y="-72" class="st0" width="72" height="72"/>
			<g>
				<line class="st1" x1="144" y1="-68.4" x2="216.5" y2="-68.4"/>
				<line class="st1" x1="144" y1="-54" x2="216.5" y2="-54"/>
				<line class="st1" x1="144" y1="-39.6" x2="216.5" y2="-39.6"/>
				<line class="st1" x1="144" y1="-25.2" x2="216.5" y2="-25.2"/>
				<line class="st1" x1="144" y1="-10.8" x2="216.5" y2="-10.8"/>
				<line class="st1" x1="144" y1="-61.2" x2="216.5" y2="-61.2"/>
				<line class="st1" x1="144" y1="-46.8" x2="216.5" y2="-46.8"/>
				<line class="st1" x1="144" y1="-32.4" x2="216.5" y2="-32.4"/>
				<line class="st1" x1="144" y1="-18" x2="216.5" y2="-18"/>
				<line class="st1" x1="144" y1="-3.6" x2="216.5" y2="-3.6"/>
			</g>
			<g>
				<line class="st1" x1="72" y1="-68.4" x2="144.5" y2="-68.4"/>
				<line class="st1" x1="72" y1="-54" x2="144.5" y2="-54"/>
				<line class="st1" x1="72" y1="-39.6" x2="144.5" y2="-39.6"/>
				<line class="st1" x1="72" y1="-25.2" x2="144.5" y2="-25.2"/>
				<line class="st1" x1="72" y1="-10.8" x2="144.5" y2="-10.8"/>
				<line class="st1" x1="72" y1="-61.2" x2="144.5" y2="-61.2"/>
				<line class="st1" x1="72" y1="-46.8" x2="144.5" y2="-46.8"/>
				<line class="st1" x1="72" y1="-32.4" x2="144.5" y2="-32.4"/>
				<line class="st1" x1="72" y1="-18" x2="144.5" y2="-18"/>
				<line class="st1" x1="72" y1="-3.6" x2="144.5" y2="-3.6"/>
			</g>
			<g>
				<line class="st1" x1="0" y1="-68.4" x2="72.5" y2="-68.4"/>
				<line class="st1" x1="0" y1="-54" x2="72.5" y2="-54"/>
				<line class="st1" x1="0" y1="-39.6" x2="72.5" y2="-39.6"/>
				<line class="st1" x1="0" y1="-25.2" x2="72.5" y2="-25.2"/>
				<line class="st1" x1="0" y1="-10.8" x2="72.5" y2="-10.8"/>
				<line class="st1" x1="0" y1="-61.2" x2="72.5" y2="-61.2"/>
				<line class="st1" x1="0" y1="-46.8" x2="72.5" y2="-46.8"/>
				<line class="st1" x1="0" y1="-32.4" x2="72.5" y2="-32.4"/>
				<line class="st1" x1="0" y1="-18" x2="72.5" y2="-18"/>
				<line class="st1" x1="0" y1="-3.6" x2="72.5" y2="-3.6"/>
			</g>
		</g>
	</g>
</pattern>
<pattern  y="200" width="81.4" height="72" patternUnits="userSpaceOnUse" id="Scotch_Rule_5" viewBox="0 -72 81.4 72" style="overflow:visible;">
	<g>
		<rect y="-72" class="st0" width="81.4" height="72"/>
		<g>
			<rect y="-72" class="st0" width="81.4" height="72"/>
			<line class="st2" x1="40.7" y1="-72" x2="40.7" y2="0"/>
			<line class="st2" x1="13.6" y1="-72" x2="13.6" y2="0"/>
			<line class="st2" x1="67.8" y1="-72" x2="67.8" y2="0"/>
			<line class="st3" x1="44.8" y1="-72" x2="44.8" y2="0"/>
			<line class="st3" x1="17.7" y1="-72" x2="17.7" y2="0"/>
			<line class="st3" x1="71.9" y1="-72" x2="71.9" y2="0"/>
			<line class="st2" x1="48.9" y1="-72" x2="48.9" y2="0"/>
			<line class="st2" x1="21.8" y1="-72" x2="21.8" y2="0"/>
			<line class="st2" x1="76" y1="-72" x2="76" y2="0"/>
			<line class="st3" x1="36.6" y1="-72" x2="36.6" y2="0"/>
			<line class="st3" x1="9.4" y1="-72" x2="9.4" y2="0"/>
			<line class="st3" x1="63.7" y1="-72" x2="63.7" y2="0"/>
			<line class="st2" x1="5.3" y1="-72" x2="5.3" y2="0"/>
			<line class="st2" x1="32.4" y1="-72" x2="32.4" y2="0"/>
			<line class="st2" x1="59.6" y1="-72" x2="59.6" y2="0"/>
		</g>
	</g>
</pattern>
<path class="st4" d="M68.2,137.6c25.1-15,70.8,35.5,86.1,24.3c14.1-10.3-11.9-62.5,0.2-69.7c9.4-5.5,29.8,22.8,37.8,17.9
	c8.7-5.3,5.5-39.3-14.4-60.1c-2.7-2.9-6.6-6.9-12.9-10.1c-23-11.9-56.2-1.6-75.8,16.7C63.9,80.6,66.9,113.3,51.4,115
	c-15.8,1.8-26.6-31.7-37.6-28.5c-8.8,2.5-13,27.2-4.3,45.6c7.6,16,25.9,29.3,39.5,25.4C59.8,154.5,58.3,143.5,68.2,137.6z"/>
<pattern  id="SVGID_1_" xlink:href="#_x31_0_lpi_80_x25__2" patternTransform="matrix(1 0 0 -1 -72.25 -16600)">
</pattern>
<path class="st5" d="M46.2,177.2c6.4,6.3,21.1,2.4,30.1-3.4c16.7-10.8,11.6-27.2,25.1-37.9c20.6-16.3,48.2,9.5,66.6-6.2
	c11.9-10.2,15.2-33.9,6.8-43.7c-11.4-13.5-39.3,5.3-54.8-10.3c-9-9-2.8-18.6-12.4-28.5c-11.3-11.7-33.6-12.6-50.4-3.6
	C36.3,55,24,81.6,29.3,98.7c3.4,10.9,11,8.9,16.7,20.8C57.1,142.7,36.1,167.4,46.2,177.2z"/>
<pattern  id="SVGID_2_" xlink:href="#Scotch_Rule_5" patternTransform="matrix(1 0 0 -1 0 -16600)">
</pattern>
<path class="st6" d="M203.3,178.3"/>
<path class="st7" d="M84.5,186"/>
<rect x="51.4" y="85.6" transform="matrix(1 -2.587261e-03 2.587261e-03 1 -0.2672 0.2819)" class="st0" width="114.8" height="35.5"/>
<g class="st8">
	<path class="st9" d="M52.1,115.2l4.2-4.4c-1.5-2-2.6-4.3-3.2-6.8c1.9-3.2,4.7-6.4,8.5-9.5c3,0.8,6.4,1.6,10.2,2.3l0.6-0.1l-4.5,4.6
		l4,9.9c-3,2.2-5.7,5.1-8.2,8.6C60.5,117.8,56.6,116.3,52.1,115.2z M64.8,113.5c1.6,0,2.4-0.6,2.4-1.7c0-1-1.2-3.1-3.5-6.3l-5.8,6
		C60.5,112.8,62.7,113.5,64.8,113.5z M61,105.8l4.6-4.8c-2.8-0.7-4.7-1.1-5.6-1.1c-0.9,0-1.5,0.1-1.6,0.3c-0.1,0.2-0.2,0.4-0.2,0.5
		C58.3,101.6,59.2,103.3,61,105.8z"/>
	<path class="st9" d="M73.9,102.1l9.4-7.6l10.6,4.9c-1.2,1.1-1.9,2.3-1.9,3.7l-0.1,8c0,0.5,0.3,1.2,0.9,1.8c0.6,0.7,1.1,1.2,1.6,1.7
		l-4.8,5l-3.7-3.8c-0.9,0.7-1.8,1.4-2.7,2c-0.9,0.6-1.7,1.2-2.4,1.9c-2.4-0.9-4.7-2.3-6.7-4.1c0.6-0.8,0.9-1.9,1-3.3l-0.1-7.3
		c0-0.1,0-0.1,0-0.2C74.8,103.8,74.5,102.9,73.9,102.1z M82.1,100.2c-0.9,1.4-1.4,2.6-1.4,3.7l0,5.9c0,1.2,0.2,2.1,0.7,2.6
		c0.4,0.5,0.7,1,1,1.4c0.3,0.4,0.8,0.7,1.5,0.9l2-1.4l0-11.1L82.1,100.2z"/>
	<path class="st9" d="M107.7,119.5l-11.5-4.6c0.4-2.4,0.6-4.9,0.6-7.5c0-2.6-0.3-5.3-0.8-8.2l8.3-4.9v-0.1l0,0h0l9.4,6.7l-9.7,10.3
		c0.7,0.8,1.4,1.2,2.2,1.3c0.8,0.1,1.5,0.1,2,0.1c0.5,0,1.1,0,1.8-0.1c0.7-0.1,1.6-0.1,2.6-0.1c-0.8,1.2-1.7,2.4-2.5,3.5
		C109.3,117.2,108.5,118.3,107.7,119.5z M103.6,100.8c-0.9,0-1.4,1.3-1.4,3.8c0,1.4,0.2,2.9,0.7,4.3c0,0.1,0,0.3,0.1,0.4l3.9-4.1
		c0.3-0.3,0.4-0.6,0.4-0.9c0-0.3-0.1-0.7-0.4-1.1c-0.3-0.4-0.6-0.8-0.9-1.1C105,101.2,104.2,100.8,103.6,100.8z"/>
	<path class="st9" d="M123.7,97.8l3.1-3.2c3.2,2.2,5.4,4.5,6.6,6.8l-3.8,5.2c-0.4-1.3-1-2.4-1.8-3.3c-0.7-1-2-1.9-3.7-2.9l-0.8,1.1
		l-0.4,8.2c0,0.8,0.5,1.7,1.6,2.6c1.1,0.9,2,1.5,2.6,1.7l-4,5.7l-7.5-5.8c0.9-1.1,1.4-2.2,1.4-3.3l-0.1-9.2c0-0.8-0.6-1.5-1.8-2.3
		l3.6-4.6L123.7,97.8z"/>
	<path class="st9" d="M134.4,98.8l3.6-4.6l5.4,2.5c-0.2,0.7-0.4,1.3-0.6,1.9c-0.2,0.6-0.3,1.3-0.3,1.9l-0.3,9.8c0,0.1,0,0.2,0,0.2
		c0,0.8,0.2,1.4,0.7,1.9c0.5,0.5,1,0.9,1.7,1.1l-4.8,5.9l-5.1-4.1c0.9-1.1,1.4-2.2,1.4-3.3l0.1-10.9
		C136.1,100.3,135.6,99.6,134.4,98.8z M135.1,94l1.9-9.5l7.1,2.8L135.1,94z"/>
	<path class="st9" d="M151.3,112.4l0.3,4.3c-1.9,0.5-4,1.4-6.4,2.7c0.7-3.9,2.9-8.7,6.4-14.4c-1.1-1.9-2.1-3.5-2.9-4.7
		c-0.3-0.4-0.8-0.7-1.3-0.7c-0.6,0-1.2-0.1-1.7-0.1c0.6-0.9,1.4-1.8,2.3-2.7c0.9-0.9,2.1-1.8,3.7-2.7c0.9,1.7,1.9,3.7,3.1,6
		c1.4-1.9,2.9-4,4.4-6c2.1,0.9,3.9,1.7,5.4,2.5l-3.1,5.5c-1.2-1.2-2.3-2.1-3.5-2.6c-0.8,1.1-1.5,2-2.1,2.8c1.8,3.2,3.7,6.2,5.5,8.9
		c0.8,1.2,1.9,1.9,3.3,2c-2.2,2.4-4.2,4.5-6.1,6.1c-0.9-2-1.9-4-2.8-6c-0.9-2-1.9-4-3-6C151.8,109.4,151.3,111.1,151.3,112.4z"/>
</g>
</svg>
