<?xml version="1.0" standalone="no"?>
<!DOCTYPE svg PUBLIC "-//W3C//DTD SVG 20010904//EN"
 "http://www.w3.org/TR/2001/REC-SVG-20010904/DTD/svg10.dtd">
<svg version="1.0" xmlns="http://www.w3.org/2000/svg"
 width="700.000000pt" height="700.000000pt" viewBox="0 0 700.000000 700.000000"
 preserveAspectRatio="xMidYMid meet">
<metadata>
Created by potrace 1.11, written by Peter Selinger 2001-2013
</metadata>
<g transform="translate(0.000000,700.000000) scale(0.100000,-0.100000)"
fill="#000000" stroke="none">
<path d="M4957 5784 c-1 -1 -53 -5 -115 -9 -62 -3 -121 -8 -132 -10 -10 -2
-40 -7 -67 -10 -26 -4 -79 -14 -118 -22 -38 -8 -83 -17 -99 -20 -122 -21 -426
-131 -607 -221 l-136 -67 -54 38 c-30 21 -74 49 -99 61 l-45 22 -670 0 -670
-1 -60 -29 c-66 -32 -227 -126 -263 -154 -22 -17 11 -18 830 -17 469 0 861 -1
871 -4 15 -3 12 -8 -15 -25 -33 -20 -38 -21 -893 -22 -473 -1 -868 -3 -877 -3
-17 -1 -208 -176 -208 -191 0 -5 341 -9 758 -9 416 0 792 0 835 0 l79 -1 -29
-24 -28 -23 -834 -1 -835 0 -38 -43 c-21 -24 -57 -70 -79 -101 l-40 -57 248
-1 c136 0 255 -1 263 -1 8 0 44 0 80 0 36 0 74 0 85 0 11 0 227 0 479 1 252 0
461 -2 464 -5 3 -3 -3 -14 -13 -25 -17 -19 -35 -19 -828 -20 -749 0 -812 -2
-822 -17 -5 -9 -31 -54 -57 -100 l-47 -83 47 0 c26 -1 381 -1 790 -1 408 0
742 -4 742 -8 0 -4 -6 -15 -13 -25 -12 -17 -58 -18 -802 -19 l-790 -2 -38 -94
c-21 -51 -36 -96 -32 -99 3 -3 346 -6 762 -7 495 0 757 -3 760 -10 1 -5 -1
-17 -7 -25 -7 -12 -115 -14 -770 -15 -729 0 -762 -1 -772 -18 -5 -11 -11 -24
-12 -30 -2 -7 -9 -40 -16 -74 -7 -34 -13 -66 -14 -70 0 -5 329 -8 733 -8 457
-1 736 -5 738 -10 1 -6 -2 -17 -7 -25 -8 -13 -102 -15 -740 -16 -401 0 -732
-3 -735 -6 -3 -2 -7 -48 -9 -101 l-4 -96 695 0 c382 0 696 -1 698 -3 1 -2 -1
-13 -5 -24 l-8 -22 -659 0 c-362 0 -672 -1 -689 -1 -31 -1 -31 -2 -27 -45 3
-25 10 -69 17 -98 l11 -53 503 -3 c276 -1 502 -6 502 -11 0 -4 -8 -15 -18 -24
-17 -15 -65 -17 -488 -17 l-469 0 -29 41 c-47 67 -187 230 -243 282 -91 86
-154 121 -230 126 -176 11 -332 -257 -370 -634 -7 -79 -8 -307 0 -370 14 -112
18 -141 23 -165 4 -14 8 -38 11 -53 12 -72 67 -245 106 -334 227 -515 758
-943 1186 -956 71 -2 81 -4 81 -20 0 -10 -4 -26 -9 -35 -4 -9 -11 -36 -15 -59
l-6 -41 743 1 742 2 43 88 c24 49 41 94 39 100 -3 9 -173 12 -666 11 l-661 -1
43 25 42 25 632 1 c347 1 634 3 637 6 2 3 18 41 35 85 16 44 32 87 35 95 6 14
-58 15 -575 15 -319 0 -583 4 -586 8 -3 5 2 16 11 25 15 15 70 17 594 17 l577
0 26 52 c15 29 39 73 53 99 14 25 26 48 26 49 0 1 -252 2 -560 2 -309 0 -564
4 -568 8 -4 3 3 15 16 25 22 18 52 19 588 19 l565 1 22 25 22 25 180 -89 c192
-96 226 -114 515 -279 102 -58 205 -116 230 -130 25 -14 79 -44 120 -67 84
-47 315 -165 324 -165 3 0 29 -11 58 -24 170 -76 346 -106 454 -77 112 30 201
139 229 282 27 136 11 436 -35 662 -18 86 -18 85 53 86 79 1 96 5 165 36 84
38 242 164 210 166 -7 0 -112 1 -233 0 -121 0 -228 2 -238 5 -11 4 -17 13 -15
26 3 20 9 20 274 19 l271 -1 24 33 c42 57 69 97 88 135 l19 37 -364 -1 c-347
-1 -364 0 -364 18 0 10 1 21 3 25 1 3 170 7 375 7 l374 1 15 29 c24 45 62 165
55 169 -4 2 -107 3 -229 3 -123 -1 -223 2 -223 6 0 3 -13 9 -29 13 -16 3 -34
12 -40 18 -7 10 52 12 261 12 148 0 273 2 277 5 11 7 33 113 35 165 l1 30
-351 1 c-193 0 -358 4 -367 7 -9 3 -20 15 -26 26 -11 19 -6 19 365 19 l375 1
107 -73 c108 -73 126 -83 196 -111 53 -21 134 -19 169 3 67 45 118 150 142
290 23 140 10 424 -29 597 -2 11 -9 43 -15 70 -53 238 -172 530 -307 752 -128
211 -325 444 -484 572 -25 20 -47 38 -50 41 -18 20 -161 106 -245 147 -145 71
-317 123 -495 148 -43 6 -289 22 -293 19z m563 -1996 c0 -4 -21 -8 -47 -7 -39
1 -43 3 -23 9 31 9 70 8 70 -2z m70 -4 c0 -2 -13 -4 -30 -4 -16 0 -30 4 -30 8
0 5 14 7 30 4 17 -2 30 -6 30 -8z m-120 -211 c-1 -18 -29 -43 -48 -43 -18 0
-42 25 -42 44 0 3 20 6 45 6 25 0 45 -3 45 -7z m505 -18 l30 -24 -148 -1
c-152 0 -153 0 -124 38 6 8 41 12 111 12 92 0 104 -2 131 -25z m-4103 -240 c0
-8 1 -20 2 -27 1 -8 -77 -11 -307 -11 -280 0 -309 2 -327 18 -11 10 -20 21
-20 26 0 4 146 7 325 8 278 0 325 -2 327 -14z m278 0 c-12 -15 -30 -12 -30 6
0 5 10 9 21 9 18 0 19 -2 9 -15z m-236 -246 c3 -3 -3 -14 -14 -24 -19 -17 -40
-19 -178 -20 -132 -1 -163 2 -194 17 -20 10 -39 21 -42 26 -5 9 419 10 428 1z
m3531 -19 l13 -25 -56 0 c-48 0 -58 3 -63 20 -9 29 -4 33 47 31 38 -1 48 -6
59 -26z m-2580 -774 c11 -2 -29 -3 -90 -3 -68 0 -93 2 -65 6 42 6 109 4 155
-3z"/>
<path d="M2757 5684 c-1 -1 -36 -4 -77 -8 -41 -3 -84 -8 -95 -10 -11 -2 -40
-7 -65 -12 -25 -4 -47 -8 -50 -9 -43 -8 -157 -39 -162 -44 -4 -3 229 -6 518
-6 288 0 524 3 524 6 0 15 -184 58 -320 75 -49 6 -267 13 -273 8z"/>
<path d="M1740 1260 c-195 -5 -205 -6 -208 -25 -1 -11 -5 -55 -9 -97 l-6 -78
667 0 666 0 30 33 c45 47 123 157 117 163 -7 7 -1001 10 -1257 4z"/>
<path d="M1524 984 c9 -46 29 -98 53 -136 22 -36 26 -38 76 -38 28 -1 224 -1
435 -1 l383 0 72 37 c72 36 180 105 227 143 l25 21 -638 0 -637 0 4 -26z"/>
<path d="M1701 739 c121 -65 305 -70 525 -14 53 14 99 26 101 28 1 2 -146 4
-328 4 -326 0 -331 -1 -298 -18z"/>
</g>
</svg>
